<svg width="77" height="77" viewBox="0 0 77 77" fill="none" xmlns="http://www.w3.org/2000/svg">
<path d="M65.7236 11.2764C58.452 4.00475 48.7837 0 38.5 0C28.2163 0 18.548 4.00475 11.2764 11.2764C4.00475 18.548 0 28.2163 0 38.5C0 48.7837 4.00475 58.452 11.2764 65.7236C18.548 72.9953 28.2163 77 38.5 77C48.2029 77 57.4718 73.379 64.5989 66.8041L63.0481 65.1231C56.3446 71.3071 47.6265 74.7129 38.5 74.7129C28.8273 74.7129 19.7334 70.9462 12.8936 64.1063C6.05382 57.2666 2.28714 48.1727 2.28714 38.5C2.28714 28.8273 6.05382 19.7334 12.8936 12.8937C19.7334 6.05382 28.8273 2.28714 38.5 2.28714C48.1727 2.28714 57.2666 6.05382 64.1064 12.8937C70.9462 19.7334 74.7129 28.8273 74.7129 38.5C74.7129 47.6128 71.316 56.321 65.1482 63.0204L66.8307 64.5696C73.3885 57.4467 77 48.1883 77 38.5C77 28.2163 72.9953 18.548 65.7236 11.2764Z" fill="#FFC000"/>
<path d="M42.5333 39.6436H52.0703V37.3564H42.5333C42.2898 36.4991 41.7803 35.753 41.0992 35.2134L46.5002 22.1743L44.3873 21.2991L38.9871 34.3361C38.8271 34.3175 38.665 34.307 38.5001 34.307C36.188 34.307 34.3071 36.188 34.3071 38.5C34.3071 40.812 36.188 42.693 38.5001 42.693C40.4155 42.693 42.034 41.4013 42.5333 39.6436ZM36.5941 38.5C36.5941 37.4489 37.4491 36.5941 38.5 36.5941C39.5511 36.5941 40.4059 37.4491 40.4059 38.5C40.4059 39.5511 39.5509 40.4059 38.5 40.4059C37.4489 40.4059 36.5941 39.5511 36.5941 38.5Z" fill="#FFC000"/>
<path d="M67.8514 38.5C67.8514 22.3156 54.6844 9.14856 38.5 9.14856C22.3156 9.14856 9.14856 22.3156 9.14856 38.5C9.14856 54.6844 22.3156 67.8514 38.5 67.8514C54.6844 67.8514 67.8514 54.6844 67.8514 38.5ZM11.4357 38.5C11.4357 23.5766 23.5767 11.4357 38.5 11.4357C53.4233 11.4357 65.5643 23.5766 65.5643 38.5C65.5643 53.4234 53.4234 65.5643 38.5 65.5643C23.5766 65.5643 11.4357 53.4234 11.4357 38.5Z" fill="#FFC000"/>
<path d="M39.6436 55.1198H37.3564V63.6584H39.6436V55.1198Z" fill="#FFC000"/>
<path d="M9.27489 50.6066L7.1619 51.4819C10.6298 59.8538 17.1502 66.3745 25.5223 69.8423L26.3976 67.7295C18.5898 64.4952 12.5089 58.4141 9.27489 50.6066Z" fill="#FFC000"/>
<path d="M67.7355 26.3913L69.8483 25.516C66.3805 17.1439 59.8598 10.6233 51.4879 7.15574L50.6126 9.26857C58.4203 12.5027 64.5012 18.5836 67.7355 26.3913Z" fill="#FFC000"/>
<path d="M38.5 6.86142V4.57428C29.4381 4.57428 20.9187 8.1032 14.5109 14.5107C8.1032 20.9186 4.57428 29.4381 4.57428 38.5H6.86142C6.86142 30.0489 10.1524 22.1038 16.128 16.128C22.1038 10.1524 30.0491 6.86142 38.5 6.86142Z" fill="#FFC000"/>
<path d="M72.4257 38.5H70.1386C70.1386 46.9509 66.8476 54.8962 60.872 60.872C54.8963 66.8477 46.9509 70.1386 38.5 70.1386V72.4257C47.5619 72.4257 56.0813 68.8968 62.4893 62.4893C68.8968 56.0813 72.4257 47.5619 72.4257 38.5Z" fill="#FFC000"/>
<path d="M39.6436 13.3416H37.3564V21.8802H39.6436V13.3416Z" fill="#FFC000"/>
<path d="M31.4457 18.4825L29.9285 14.8197L27.8154 15.695L29.3326 19.3577L31.4457 18.4825Z" fill="#FFC000"/>
<path d="M45.5529 58.5133L47.0701 62.176L49.183 61.3008L47.6658 57.6381L45.5529 58.5133Z" fill="#FFC000"/>
<path d="M19.3572 29.335L15.6946 27.8178L14.8194 29.9308L18.482 31.4479L19.3572 29.335Z" fill="#FFC000"/>
<path d="M57.6431 47.6623L61.3059 49.1794L62.1811 47.0665L58.5184 45.5493L57.6431 47.6623Z" fill="#FFC000"/>
<path d="M14.8212 47.0701L15.6964 49.183L19.359 47.6659L18.4838 45.5529L14.8212 47.0701Z" fill="#FFC000"/>
<path d="M62.1797 29.9311L61.3044 27.8182L57.6417 29.3354L58.5169 31.4483L62.1797 29.9311Z" fill="#FFC000"/>
<path d="M27.8172 61.3029L29.9303 62.1782L31.4475 58.5154L29.3344 57.6401L27.8172 61.3029Z" fill="#FFC000"/>
<path d="M49.1866 15.6959L47.0737 14.8206L45.5565 18.4834L47.6694 19.3586L49.1866 15.6959Z" fill="#FFC000"/>
<path d="M19.9007 21.5196L25.9384 27.5572L27.5556 25.94L21.518 19.9024L19.9007 21.5196Z" fill="#FFC000"/>
<path d="M49.4428 51.0624L55.4805 57.1001L57.0977 55.4828L51.0601 49.4452L49.4428 51.0624Z" fill="#FFC000"/>
<path d="M21.8802 37.3564H13.3416V39.6436H21.8802V37.3564Z" fill="#FFC000"/>
<path d="M63.6584 37.3564H55.1198V39.6436H63.6584V37.3564Z" fill="#FFC000"/>
<path d="M19.898 55.4817L21.5152 57.0989L27.5528 51.0613L25.9356 49.444L19.898 55.4817Z" fill="#FFC000"/>
<path d="M57.0966 21.5183L55.4794 19.901L49.4418 25.9387L51.059 27.5559L57.0966 21.5183Z" fill="#FFC000"/>
</svg>
